<?xml version="1.0" encoding="utf-8"?>
<svg version="1.1" id="Camada_1" xmlns="http://www.w3.org/2000/svg" xmlns:xlink="http://www.w3.org/1999/xlink" x="0px" y="0px"
	 viewBox="0 0 377.4 75" style="enable-background:new 0 0 377.4 75;" xml:space="preserve">
<polygon class="st0" fill="#6D6E70" points="0,2.3 52.4,2.3 52.4,14 11.7,14 11.7,31.6 41,31.6 41,43.3 11.7,43.3 11.7,72.6 0,72.6 "/>
<polygon class="st0" fill="#6D6E70" points="95.7,14 75.4,14 75.4,2.3 127.8,2.3 127.8,14 107.4,14 107.4,72.6 95.7,72.6 "/>
<rect x="58" y="20" class="st0" fill="#6D6E70" width="11.7" height="52.7"/>
<path class="st1" fill="#B81237" d="M188.9,48.8c-1.1,2.4-2.5,4.5-4.3,6.4c-1.5,1.6-3.6,3.1-6.1,4.4c-2.5,1.3-5.6,1.9-9.3,1.9
	c-3.3,0-6.4-0.6-9.4-1.9c-2.9-1.3-5.5-3-7.7-5.2c-2.2-2.2-3.9-4.7-5.1-7.7c-1.3-2.9-1.9-6.1-1.9-9.4c0-3.3,0.6-6.4,1.9-9.4
	c1.3-2.9,3-5.5,5.1-7.7c2.2-2.2,4.8-3.9,7.7-5.2c2.9-1.3,6.1-1.9,9.4-1.9c3.6,0,6.8,0.7,9.3,2c2.6,1.3,4.6,2.8,6.1,4.3
	c1.8,1.9,3.2,4,4.3,6.4l0.2,0.5h14.4l-0.3-1.1c-1.4-4.7-3.7-9-6.7-12.7c-1.3-1.5-2.8-3.1-4.5-4.6c-1.7-1.5-3.7-2.9-5.9-4.1
	c-2.2-1.2-4.8-2.2-7.6-2.9c-2.8-0.7-6-1.1-9.4-1.1c-5.1,0-10,1-14.6,3c-4.5,2-8.5,4.7-11.9,8c-3.4,3.4-6.1,7.4-8,11.9
	c-2,4.5-3,9.4-3,14.6c0,5.1,1,10,3,14.6c2,4.5,4.7,8.5,8,11.9c3.4,3.4,7.4,6.1,11.9,8c4.5,2,9.4,3,14.6,3c3.4,0,6.6-0.4,9.4-1.1
	c2.8-0.7,5.3-1.7,7.6-2.9c2.2-1.2,4.2-2.6,5.9-4.1c1.7-1.5,3.2-3.1,4.5-4.7c3-3.7,5.2-8,6.7-12.7l0.3-1.1h-14.4L188.9,48.8z"/>
<path class="st1" fill="#B81237" d="M236.5,1.5h-12.9l-25.5,72h15l4.2-11.7h25.5l4.2,11.7h15L236.5,1.5z M238,48.3h-16l8-22.3L238,48.3z"/>
<path class="st1" fill="#B81237" d="M297.3,47.4c1.5-0.7,2.9-1.5,4-2.4c1.4-1.1,2.7-2.2,3.7-3.4c1-1.2,1.9-2.4,2.5-3.7c0.6-1.2,1.2-2.5,1.6-3.6
	c0.9-2.8,1.3-5.6,1.2-8.6c0-3-0.4-5.7-1.1-8c-0.7-2.3-1.6-4.3-2.7-6c-1.1-1.7-2.5-3.2-3.9-4.3c-1.4-1.1-2.9-2.1-4.5-2.9
	c-3.5-1.8-7.6-2.8-12.1-3h-24.3v72h13.4V50h7.5l17.6,23.4H317L297.3,47.4z M296.9,25.7c0,2.7-0.6,4.8-1.7,6.3
	c-1.1,1.5-2.4,2.6-3.7,3.2c-1.6,0.8-3.5,1.3-5.5,1.4h-10.9V14.9H286c2,0.1,3.9,0.6,5.5,1.4c0.7,0.4,1.3,0.8,2,1.3
	c0.6,0.5,1.2,1.2,1.8,1.9c0.5,0.7,0.9,1.6,1.2,2.6C296.7,23.1,296.9,24.4,296.9,25.7z"/>
<path class="st1" fill="#B81237" d="M375.9,25.6c-1-3.4-2.4-6.4-4.1-8.9c-1.7-2.5-3.7-4.7-5.8-6.5c-2.2-1.7-4.4-3.2-6.6-4.3
	c-5.2-2.6-11.3-4.1-18-4.5h-24.3v72h24.3c6.6-0.3,12.7-1.8,17.9-4.5c2.2-1.1,4.4-2.6,6.6-4.3c2.2-1.8,4.1-3.9,5.8-6.5
	c1.7-2.5,3.1-5.5,4.1-8.9c1-3.4,1.5-7.4,1.5-11.8C377.4,33,376.9,29,375.9,25.6z M364,37.5c0,2.8-0.3,5.4-1,7.5
	c-0.7,2.1-1.5,4-2.5,5.6c-1,1.6-2.2,2.9-3.6,4c-1.4,1.1-2.8,2-4.2,2.7c-3.3,1.7-7.1,2.6-11.3,2.8h-10.9V14.9h10.8
	c4.3,0.2,8.1,1.2,11.4,2.8c1.4,0.7,2.8,1.7,4.2,2.7c1.3,1,2.5,2.4,3.6,3.9c1,1.6,1.9,3.5,2.5,5.6C363.7,32.1,364,34.6,364,37.5z"/>
<rect x="58" y="2.3" class="st1" fill="#B81237" width="11.7" height="12"/>
</svg>
